<?xml version="1.0" encoding="UTF-8"?>
<svg width="1600px" height="900px" viewBox="0 0 1600 900" version="1.1" xmlns="http://www.w3.org/2000/svg" xmlns:xlink="http://www.w3.org/1999/xlink">
    <title>SlideLayoutOneVarTwo</title>
    <defs>
        <linearGradient x1="50.0075949%" y1="100.052033%" x2="50.0075949%" y2="0.00921409214%" id="linearGradient-1">
            <stop stop-color="#0053FF" offset="0%"></stop>
            <stop stop-color="#0057FF" offset="23.22%"></stop>
            <stop stop-color="#0062FF" offset="45.61%"></stop>
            <stop stop-color="#0076FF" offset="67.69%"></stop>
            <stop stop-color="#0091FF" offset="89.43%"></stop>
            <stop stop-color="#00A1FF" offset="100%"></stop>
        </linearGradient>
        <linearGradient x1="50.0041379%" y1="99.9254885%" x2="50.0041379%" y2="0.0261101243%" id="linearGradient-2">
            <stop stop-color="#0053FF" offset="0%"></stop>
            <stop stop-color="#0057FF" offset="23.22%"></stop>
            <stop stop-color="#0062FF" offset="45.61%"></stop>
            <stop stop-color="#0076FF" offset="67.69%"></stop>
            <stop stop-color="#0091FF" offset="89.43%"></stop>
            <stop stop-color="#00A1FF" offset="100%"></stop>
        </linearGradient>
        <linearGradient x1="-7.77156117e-14%" y1="50%" x2="100%" y2="50%" id="linearGradient-3">
            <stop stop-color="#0F171F" offset="0%"></stop>
            <stop stop-color="#0044BA" offset="100%"></stop>
        </linearGradient>
    </defs>
    <g id="Layouts" stroke="none" stroke-width="1" fill="none" fill-rule="evenodd">
        <g id="SlideLayoutOneVarTwo">
            <rect id="Rectangle" x="0" y="0" width="1600" height="900"></rect>
            <g id="jala-university" transform="translate(40, 45)" fill-rule="nonzero">
                <path d="M89.0228066,65 C83.6827782,65 80,61.568 80,56.156 L80,43 L83.7288129,43 L83.7288129,56.244 C83.7288129,59.632 85.8464104,61.568 89.0228066,61.568 C92.1992028,61.568 94.2707655,59.632 94.2707655,56.244 L94.2707655,43 L97.9995784,43 L97.9995784,56.156 C98.0456132,61.568 94.3168002,65 89.0228066,65" id="Path" fill="#0044BD"></path>
                <path d="M103,49.3163842 L106.399361,49.3163842 L106.399361,51.440678 C107.338658,49.8587571 109.083067,49 111.095847,49 C114.674121,49 117,51.5762712 117,55.5536723 L117,65 L113.600639,65 L113.600639,56.1412429 C113.600639,53.6553672 112.348243,52.1638418 110.380192,52.1638418 C108.099042,52.1638418 106.399361,53.9717514 106.399361,57.3163842 L106.399361,65 L103,65 L103,49.3163842 Z" id="Path" fill="#0044BD"></path>
                <path d="M122.5,45.6628571 C121.127451,45.6628571 120,44.6114286 120,43.3314286 C120,42.0514286 121.176471,41 122.5,41 C123.872549,41 125,42.0514286 125,43.3314286 C125,44.6114286 123.921569,45.6628571 122.5,45.6628571 M120.637255,49.1371429 L124.362745,49.1371429 L124.362745,65 L120.637255,65 L120.637255,49.1371429 Z" id="Shape" fill="#0044BD"></path>
                <polygon id="Path" fill="#0044BD" points="127 49 130.782723 49 135.455497 60.1907514 140.172775 49 144 49 136.968586 65 133.986911 65"></polygon>
                <path d="M153.057868,65 C148.368826,65 145,61.6222222 145,57 C145,52.4222222 148.232252,49 153.103393,49 C157.929008,49 161.297834,52.6 160.979162,57.8444444 L148.414351,57.8444444 C148.550925,60.2 150.371912,62.0222222 153.194442,62.0222222 C154.92438,62.0222222 156.426694,61.3555556 157.155089,59.8444444 L160.797063,59.8444444 C159.932094,62.7333333 157.064039,65 153.057868,65 M148.550925,55.4 L157.246138,55.4 C156.699842,52.9111111 154.92438,51.8 152.966819,51.8 C150.827159,51.8 149.051696,53.0444444 148.550925,55.4" id="Shape" fill="#0044BD"></path>
                <path d="M164,49.1371429 L167.472081,49.1371429 L167.472081,51.9714286 C168.06599,50.1428571 169.847716,49 171.629442,49 C172.086294,49 172.497462,49.0457143 173,49.1371429 L173,52.7028571 C172.406091,52.52 171.903553,52.4285714 171.263959,52.4285714 C169.253807,52.4285714 167.472081,54.12 167.472081,57.2742857 L167.472081,65 L164,65 L164,49.1371429 Z" id="Path" fill="#0044BD"></path>
                <path d="M182.821501,65 C179.088112,65 176.184365,63.0941828 176,60.0360111 L179.641206,60.0360111 C179.917754,61.6759003 181.346582,62.2963989 182.913683,62.2963989 C184.434694,62.2963989 185.494792,61.7202216 185.494792,60.6565097 C185.494792,59.5927978 184.803423,59.0166205 183.144139,58.6177285 L180.51694,57.9529086 C177.751466,57.2880886 176.414821,55.5595568 176.414821,53.299169 C176.414821,50.7285319 178.765473,49 182.360589,49 C185.81743,49 188.214174,50.8614958 188.44463,53.6094183 L184.941697,53.6094183 C184.619058,52.3240997 183.55896,51.7036011 182.314497,51.7036011 C180.977852,51.7036011 179.963845,52.2797784 179.963845,53.2548476 C179.963845,54.2299169 180.747396,54.7617729 182.084041,55.1163435 L184.757332,55.7811634 C187.614988,56.4903047 188.997724,58.0858726 188.997724,60.434903 C189.089907,63.4487535 186.370525,65 182.821501,65" id="Path" fill="#0044BD"></path>
                <path d="M193.5,45.6628571 C192.127451,45.6628571 191,44.6114286 191,43.3314286 C191,42.0514286 192.176471,41 193.5,41 C194.872549,41 196,42.0514286 196,43.3314286 C195.95098,44.6114286 194.872549,45.6628571 193.5,45.6628571 M191.588235,49.1371429 L195.313725,49.1371429 L195.313725,65 L191.588235,65 L191.588235,49.1371429 Z" id="Shape" fill="#0044BD"></path>
                <path d="M206.506073,65 C203.522267,65 201.206478,63.3408072 201.206478,59.8430493 L201.206478,52.3542601 L198,52.3542601 L198,49.3049327 L201.206478,49.3049327 L201.206478,45 L204.591093,45 L204.591093,49.3049327 L209,49.3049327 L209,52.3542601 L204.591093,52.3542601 L204.591093,59.2600897 C204.591093,61.1883408 205.437247,61.9058296 207.174089,61.9058296 C207.842105,61.9058296 208.510121,61.7713004 209,61.5919283 L209,64.6412556 C208.331984,64.8654709 207.530364,65 206.506073,65" id="Path" fill="#0044BD"></path>
                <polygon id="Path" fill="#0044BD" points="214.346457 71 217.648294 63.6517312 211 49 214.748031 49 219.47769 59.9775967 224.207349 49 228 49 218.094488 71"></polygon>
                <path d="M105.903061,20.5714286 L110.081633,20.5714286 C110.586735,20.5714286 111,20.967033 111,21.4505495 L111,34.5494505 C111,35.032967 110.586735,35.4285714 110.081633,35.4285714 L105.903061,35.4285714 L105.903061,33.7582418 C104.479592,35.2967033 102.872449,36 100.622449,36 C96.2142857,36 93,32.7472527 93,28.2197802 C93,23.4725275 96.3979592,20 101.035714,20 C103.010204,20 104.341837,20.6153846 105.857143,22.1978022 L105.857143,20.5714286 L105.903061,20.5714286 Z M98.4642857,28.1318681 C98.4642857,30.4175824 100.071429,32.1758242 102.137755,32.1758242 C104.25,32.1758242 105.94898,30.3296703 105.94898,28.0879121 C105.94898,25.7142857 104.387755,24.0879121 102.183673,24.0879121 C99.9795918,24.043956 98.4642857,25.7142857 98.4642857,28.1318681" id="Shape" fill="#282828"></path>
                <path d="M134.903061,20.5714286 L139.081633,20.5714286 C139.586735,20.5714286 140,20.967033 140,21.4505495 L140,34.5494505 C140,35.032967 139.586735,35.4285714 139.081633,35.4285714 L134.903061,35.4285714 L134.903061,33.7582418 C133.479592,35.2967033 131.872449,36 129.622449,36 C125.214286,36 122,32.7472527 122,28.2197802 C122,23.4725275 125.397959,20 130.035714,20 C132.010204,20 133.341837,20.6153846 134.857143,22.1978022 L134.857143,20.5714286 L134.903061,20.5714286 Z M127.464286,28.1318681 C127.464286,30.4175824 129.071429,32.1758242 131.137755,32.1758242 C133.25,32.1758242 134.94898,30.3296703 134.94898,28.0879121 C134.94898,25.7142857 133.387755,24.0879121 131.183673,24.0879121 C129.02551,24.043956 127.464286,25.7142857 127.464286,28.1318681" id="Shape" fill="#282828"></path>
                <path d="M82.8528302,14 L82.8528302,18.695122 L86.6566038,18.695122 L86.6566038,26.6544715 C86.6566038,29.203252 86.3849057,29.7398374 85.5245283,30.4105691 C84.9358491,30.8577236 83.8943396,31.1260163 82.7622642,31.1260163 L80,31.1260163 L80,36 L81.9018868,36 L81.9018868,36 C83.4415094,36 84.845283,35.9552846 85.9773585,35.8211382 C87.3811321,35.6422764 88.6943396,35.1504065 89.7358491,34.2560976 C91.4566038,32.8699187 92,30.9918699 92,27.5487805 L92,14.8943089 C92,14.402439 91.5924528,14 91.0943396,14 L82.8528302,14 Z" id="Path" fill="#282828"></path>
                <path d="M115,36 L115,14 L119.099099,14 C119.594595,14 120,14.4065708 120,14.9034908 L120,35.0965092 C120,35.5934292 119.594595,36 119.099099,36 L115,36 Z" id="Path" fill="#282828"></path>
                <path d="M44.9848101,0 C43.4810127,0 42.2506329,1.24390244 42.2506329,2.76422764 L42.2506329,32.4796748 C42.2506329,38.699187 38.7873418,42.4308943 32.9544304,42.4308943 C27.1670886,42.4308943 23.7037975,38.699187 23.7037975,32.4796748 L23.7037975,28.2411924 C23.7037975,26.7208672 22.4734177,25.4769648 20.9696203,25.4769648 L15,25.4769648 L15,32.3414634 C15,43.4905149 22.2455696,51 32.9544304,51 C43.7544304,51 51,43.4905149 51,32.3414634 L51,0 L44.9848101,0 Z" id="Path" fill="url(#linearGradient-1)"></path>
                <path d="M54.3475862,14 L54.3475862,31.7797513 C54.3475862,45.8650089 46.2,54.5932504 33.0455172,54.5932504 C19.8455172,54.5932504 11.6524138,45.8650089 11.6524138,31.7797513 L11.6524138,14.1385435 L2.54896552,14.1385435 C1.13793103,14.1385435 0,15.2930728 0,16.7246892 L0,31.5950266 C0,52.1918295 13.2910345,66 33.0455172,66 C52.7544828,66 66,52.1918295 66,31.5950266 L66,16.6323268 C66,15.2007105 64.862069,14.0461812 63.4510345,14.0461812 L54.3475862,14.0461812 L54.3475862,14 Z" id="Path" fill="url(#linearGradient-2)"></path>
            </g>
            <rect id="Rectangle" fill="url(#linearGradient-3)" x="0" y="599" width="46" height="152"></rect>
        </g>
    </g>
</svg>